<svg xmlns="http://www.w3.org/2000/svg" viewBox="0 0 145.5 145.5"><defs><style>.cls-1{fill:none;stroke:#fff;stroke-linecap:round;stroke-linejoin:round;stroke-width:1.5px;}</style></defs><title>asterisk-2</title><g id="Capa_2" data-name="Capa 2"><g id="Capa_1-2" data-name="Capa 1"><path d="M65.59,105.11l1.92,4.68,19.36,16.73,10.7-10.29,25.49,22L143,119l-4.89-12L98.87,73.08l45.6-43.88-4.89-12.06L120.19.41,79.34,39.72l-1.9-4.66L58.06,18.31,47.36,28.62l-25.49-22-20,19.21,4.91,12L46.07,71.75.47,115.65l4.89,12,19.38,16.72Z"/><path class="cls-1" d="M20.12,132.71,139.86,17.48"/><path class="cls-1" d="M2.2,26.12,118.46,126.54"/><path class="cls-1" d="M57.77,54.58l29.39,72.27"/><path class="cls-1" d="M25,144.75l49.88-48"/><path class="cls-1" d="M50.63,68,.75,116"/><path class="cls-1" d="M74.91,96.74l48.44,41.84"/><path class="cls-1" d="M138.41,107.33,90,65.49"/><path class="cls-1" d="M99.15,73.41l45.6-43.87"/><path class="cls-1" d="M46.35,72.09.75,116"/><path class="cls-1" d="M25,144.75l40.84-39.31"/><path class="cls-1" d="M120.47.75,79.63,40.06"/><path class="cls-1" d="M7.11,38.16,46.35,72.09"/><path class="cls-1" d="M138.41,107.33,99.15,73.41"/><path class="cls-1" d="M47.64,29l-25.49-22"/><path class="cls-1" d="M97.86,116.57l25.49,22"/><path class="cls-1" d="M77.73,35.39,90,65.49"/><path class="cls-1" d="M38.39,37.85,50.63,68"/><path class="cls-1" d="M123.35,138.58l20-19.2"/><path class="cls-1" d="M58.34,18.65l-20,19.2"/><path class="cls-1" d="M138.41,107.33l-20,19.21"/><path class="cls-1" d="M2.2,26.12l20-19.2"/><path class="cls-1" d="M57.77,54.58l20-19.19"/><path class="cls-1" d="M87.16,126.85,67.79,110.13"/><path class="cls-1" d="M77.73,35.39,58.34,18.65"/><path class="cls-1" d="M120.47.75l19.39,16.73"/><path class="cls-1" d="M38.39,37.85,57.77,54.58"/><path class="cls-1" d="M20.12,132.71.75,116"/><path class="cls-1" d="M5.64,128,25,144.75"/><path class="cls-1" d="M58.34,18.65,47.64,29"/><path class="cls-1" d="M97.86,116.57l-10.7,10.28"/><path class="cls-1" d="M143.3,119.38l-4.89-12"/><path class="cls-1" d="M25,144.75l-4.91-12"/><path class="cls-1" d="M.75,116l4.89,12"/><path class="cls-1" d="M139.86,17.48l4.89,12.06"/><path class="cls-1" d="M7.11,38.16l-4.91-12"/><path class="cls-1" d="M118.46,126.54l4.89,12"/><path class="cls-1" d="M77.73,35.39l1.9,4.67"/><path class="cls-1" d="M65.87,105.44l1.92,4.69"/></g></g></svg>