<svg xmlns="http://www.w3.org/2000/svg" viewBox="0 0 161.5 170.66"><defs><style>.cls-1{fill:none;stroke:#fff;stroke-linecap:round;stroke-linejoin:round;stroke-width:1.5px;}</style></defs><title>asterisk_1</title><g id="Capa_2" data-name="Capa 2"><g id="Capa_1-2" data-name="Capa 1"><path d="M33,102.09,8.81,125.72,20.4,150.37,42.05,153l31.8-31.65L95.25,167l21.84,2.95,18.23-18.84-19.17-40.86,26,2.56,18.39-18L149,70.11l-20.81-2,24.14-23.63L140.78,19.79,119.1,17.68,87.33,48.81,65.92,2.24,44.41.75,25.86,19.1,45,59.94,19,57.39.59,75.41l11.56,24.64Z"/><path class="cls-1" d="M44.41.75,113.8,149.64"/><path class="cls-1" d="M130.85,42.28,20.56,151.07"/><path class="cls-1" d="M160.75,95.07l-130-12.8"/><path class="cls-1" d="M135.48,151.77l-28.93-62"/><path class="cls-1" d="M95.42,167.78l-28.91-62"/><path class="cls-1" d="M73.31,62.78l46-45.32"/><path class="cls-1" d="M106.55,89.74l46-45.33"/><path class="cls-1" d="M19.13,57.45l54.18,5.33"/><path class="cls-1" d="M12.31,100.41l54.2,5.33"/><path class="cls-1" d="M87.49,48.81,66.08,2.88"/><path class="cls-1" d="M95.42,167.78,74,121.85"/><path class="cls-1" d="M45.19,60,26,18.89"/><path class="cls-1" d="M135.48,151.77l-19.17-41.14"/><path class="cls-1" d="M87.49,48.81l31.77-31.35"/><path class="cls-1" d="M42.22,153.2,74,121.85"/><path class="cls-1" d="M9,126.25l24.14-23.79"/><path class="cls-1" d="M128.38,68.21l24.15-23.8"/><path class="cls-1" d="M30.7,82.27,19.13,57.45"/><path class="cls-1" d="M152.53,44.41,140.94,19.59"/><path class="cls-1" d="M119.26,17.46l11.59,24.82"/><path class="cls-1" d="M.75,75.59l11.56,24.82"/><path class="cls-1" d="M149.19,70.25l11.56,24.82"/><path class="cls-1" d="M20.56,151.07,9,126.25"/><path class="cls-1" d="M19.13,57.45,45.19,60"/><path class="cls-1" d="M116.31,110.63l26.06,2.58"/><path class="cls-1" d="M117.09,169.91l18.39-18.14"/><path class="cls-1" d="M113.8,149.64,95.42,167.78"/><path class="cls-1" d="M19.13,57.45.75,75.59"/><path class="cls-1" d="M12.31,100.41,30.7,82.27"/><path class="cls-1" d="M160.75,95.07l-18.38,18.14"/><path class="cls-1" d="M26,18.89,44.41.75"/><path class="cls-1" d="M42.22,153.2l-21.66-2.13"/><path class="cls-1" d="M95.42,167.78l21.67,2.13"/><path class="cls-1" d="M44.41.75,66.08,2.88"/><path class="cls-1" d="M135.48,151.77l-21.68-2.13"/><path class="cls-1" d="M140.94,19.59l-21.68-2.13"/><path class="cls-1" d="M130.85,42.28l21.68,2.13"/><path class="cls-1" d="M12.31,100.41l20.81,2"/><path class="cls-1" d="M128.38,68.2l20.81,2"/></g></g></svg>