<svg xmlns="http://www.w3.org/2000/svg" viewBox="0 0 340.03 40.59"><defs><style>.cls-1{fill:#fff;}</style></defs><title>checkout</title><g id="Capa_2" data-name="Capa 2"><g id="Capa_1-2" data-name="Capa 1"><path class="cls-1" d="M41.08,23.13h1v-1h-1Zm-10.56,0v-1h-1v1Zm0-5.71-1,0v1h1Zm10.56,0v1h1v-1Zm0,4.71H30.52v2H41.08Zm-11.56,1a17.73,17.73,0,0,1-.28,4,3.54,3.54,0,0,1-1,2,5,5,0,0,1-2.4,1,28,28,0,0,1-4.69.29v2a29,29,0,0,0,5.05-.33,6.75,6.75,0,0,0,3.36-1.44,5.53,5.53,0,0,0,1.67-3.06,19.76,19.76,0,0,0,.33-4.49Zm-8.41,7.29c-4.08,0-6-.47-7-1.69a6,6,0,0,1-1.17-2.91,32.92,32.92,0,0,1-.34-5.53h-2a34.89,34.89,0,0,0,.37,5.88A8,8,0,0,0,12.55,30c1.72,2,4.58,2.39,8.56,2.39ZM12.56,20.3a33,33,0,0,1,.34-5.54,6,6,0,0,1,1.17-2.91c1-1.22,3-1.69,7-1.69v-2c-4,0-6.84.39-8.56,2.39a8,8,0,0,0-1.62,3.86,35,35,0,0,0-.37,5.89Zm8.55-10.14a26.76,26.76,0,0,1,4.69.3,4.84,4.84,0,0,1,2.4,1,3.51,3.51,0,0,1,1,2,17.44,17.44,0,0,1,.28,4l2,0A19.58,19.58,0,0,0,31.19,13a5.47,5.47,0,0,0-1.67-3,6.66,6.66,0,0,0-3.36-1.44,29,29,0,0,0-5.05-.33Zm9.41,8.26H41.08v-2H30.52Zm11.56-1c.05-6.87-.67-11.46-4-14.17A13.7,13.7,0,0,0,31.56.64,63.49,63.49,0,0,0,21.11,0V2a61.62,61.62,0,0,1,10.11.61A11.65,11.65,0,0,1,36.85,4.8c2.48,2,3.28,5.66,3.23,12.61ZM21.11,0A55.13,55.13,0,0,0,10.62.75,12.9,12.9,0,0,0,4,3.82,12.09,12.09,0,0,0,.78,10.2,49.43,49.43,0,0,0,0,20.3H2a47,47,0,0,1,.74-9.67A10,10,0,0,1,5.39,5.27,10.87,10.87,0,0,1,11,2.71,53.17,53.17,0,0,1,21.11,2ZM0,20.3A49.38,49.38,0,0,0,.78,30.39,12.09,12.09,0,0,0,4,36.77a12.9,12.9,0,0,0,6.61,3.08,56.07,56.07,0,0,0,10.49.74v-2A53.17,53.17,0,0,1,11,37.88a10.87,10.87,0,0,1-5.63-2.56A10,10,0,0,1,2.74,30,46.86,46.86,0,0,1,2,20.3ZM21.11,40.59A64.77,64.77,0,0,0,31.56,40a13.71,13.71,0,0,0,6.56-2.63c3.3-2.71,4-7.31,4-14.21h-2c.05,7-.75,10.61-3.23,12.66A11.69,11.69,0,0,1,31.22,38a61.62,61.62,0,0,1-10.11.61ZM48.42,39h-1v1h1ZM58.5,39v1h1V39Zm0-14.79v-1h-1v1Zm15.36,0h1v-1h-1Zm0,14.79h-1v1h1Zm10.08,0v1h1V39Zm0-37.44h1v-1h-1Zm-10.08,0v-1h-1v1Zm0,14v1h1v-1Zm-15.36,0h-1v1h1Zm0-14h1v-1h-1Zm-10.08,0v-1h-1v1Zm0,38.44H58.5V38H48.42ZM59.5,39V24.23h-2V39Zm-1-13.79H73.86v-2H58.5Zm14.36-1V39h2V24.23Zm1,15.79H83.94V38H73.86Zm11.08-1V1.58h-2V39ZM83.94.58H73.86v2H83.94Zm-11.08,1v14h2v-14Zm1,13H58.5v2H73.86Zm-14.36,1v-14h-2v14Zm-1-15H48.42v2H58.5Zm-11.08,1V39h2V1.58Zm44.37,0v-1h-1v1Zm0,37.44h-1v1h1Zm30.67,0v1h1V39Zm0-8.64h1v-1h-1Zm-20.59,0h-1v1h1Zm0-6.24v-1h-1v1Zm18.15,0v1h1v-1ZM120,16h1V15h-1Zm-18.15,0h-1v1h1Zm0-5.76v-1h-1v1Zm20.59,0v1h1v-1Zm0-8.64h1v-1h-1Zm-31.67,0V39h2V1.58Zm1,38.44h30.67V38H91.79Zm31.67-1V30.38h-2V39Zm-1-9.64H101.87v2h20.59Zm-19.59,1V24.14h-2v6.24Zm-1-5.24H120v-2H101.87Zm19.15-1V16h-2v8.16ZM120,15H101.87v2H120Zm-17.15,1V10.22h-2V16Zm-1-4.76h20.59v-2H101.87Zm21.59-1V1.58h-2v8.64Zm-1-9.64H91.79v2h30.67Zm47.43,22.55h1v-1h-1Zm-10.56,0v-1h-1v1Zm0-5.71-1,0v1h1Zm10.56,0v1h1v-1Zm0,4.71H159.33v2h10.56Zm-11.56,1a17.83,17.83,0,0,1-.27,4,3.54,3.54,0,0,1-1.05,2,4.93,4.93,0,0,1-2.4,1,27.87,27.87,0,0,1-4.69.29v2A29,29,0,0,0,155,32.1a6.75,6.75,0,0,0,3.36-1.44A5.6,5.6,0,0,0,160,27.6a19.83,19.83,0,0,0,.32-4.49Zm-8.41,7.29c-4.08,0-6-.47-7-1.69a5.88,5.88,0,0,1-1.16-2.91,32.76,32.76,0,0,1-.35-5.53h-2a34.76,34.76,0,0,0,.38,5.88A7.77,7.77,0,0,0,141.37,30c1.71,2,4.57,2.39,8.55,2.39ZM141.37,20.3a32.81,32.81,0,0,1,.35-5.54,5.88,5.88,0,0,1,1.16-2.91c1.05-1.22,3-1.69,7-1.69v-2c-4,0-6.84.39-8.55,2.39a7.77,7.77,0,0,0-1.62,3.86,34.88,34.88,0,0,0-.38,5.89Zm8.55-10.14a26.68,26.68,0,0,1,4.69.3,4.84,4.84,0,0,1,2.4,1,3.51,3.51,0,0,1,1.05,2,17.54,17.54,0,0,1,.27,4l2,0A19.64,19.64,0,0,0,160,13a5.54,5.54,0,0,0-1.68-3A6.66,6.66,0,0,0,155,8.49a29,29,0,0,0-5.05-.33Zm9.41,8.26h10.56v-2H159.33Zm11.56-1c.05-6.87-.66-11.46-4-14.17A13.66,13.66,0,0,0,160.38.64,63.62,63.62,0,0,0,149.92,0V2A61.76,61.76,0,0,1,160,2.61a11.65,11.65,0,0,1,5.62,2.19c2.48,2,3.28,5.66,3.23,12.61ZM149.92,0a55,55,0,0,0-10.48.75,12.89,12.89,0,0,0-6.62,3.07,12,12,0,0,0-3.22,6.38,48.64,48.64,0,0,0-.79,10.1h2a47,47,0,0,1,.74-9.67,10,10,0,0,1,2.66-5.36,10.83,10.83,0,0,1,5.62-2.56A53.17,53.17,0,0,1,149.92,2ZM128.81,20.3a48.6,48.6,0,0,0,.79,10.09,12,12,0,0,0,3.22,6.38,12.9,12.9,0,0,0,6.62,3.08,56,56,0,0,0,10.48.74v-2a53.17,53.17,0,0,1-10.09-.71,10.83,10.83,0,0,1-5.62-2.56A10,10,0,0,1,131.55,30a46.86,46.86,0,0,1-.74-9.66Zm21.11,20.29A64.9,64.9,0,0,0,160.38,40a13.75,13.75,0,0,0,6.56-2.63c3.29-2.71,4-7.31,3.95-14.21h-2c.05,7-.75,10.61-3.23,12.66A11.65,11.65,0,0,1,160,38a61.76,61.76,0,0,1-10.12.61ZM177.23,39h-1v1h1Zm10.08,0v1h1V39Zm0-15V23h-1v1Zm5.33,0,.87-.49-.29-.51h-.58Zm8.49,15-.87.49.29.51h.58Zm11.52,0v1h1.8l-.95-1.53ZM200.51,19.43l-.84-.54-.35.53.34.54ZM212.17,1.58l.84.54,1-1.54h-1.85Zm-11,0v-1h-.54l-.3.46Zm-8.78,13.77v1h.55l.29-.46Zm-5,0h-1v1h1Zm0-13.77h1v-1h-1Zm-10.08,0v-1h-1v1Zm0,38.44h10.08V38H177.23Zm11.08-1V24h-2V39Zm-1-14h5.33V23h-5.33Zm4.46-.51,8.49,15,1.74-1-8.49-15ZM201.13,40h11.52V38H201.13Zm12.37-1.53L201.36,18.91,199.66,20,211.8,39.54ZM201.35,20,213,2.12,211.34,1,199.67,18.89ZM212.17.58h-11v2h11ZM200.29,1l-8.78,13.77,1.68,1.08L202,2.11Zm-7.94,13.31h-5v2h5Zm-4,1V1.58h-2V15.35Zm-1-14.77H177.23v2h10.08Zm-11.08,1V39h2V1.58Zm62.51,8.58a22.06,22.06,0,0,1,4.82.39A4.57,4.57,0,0,1,246,11.86a6,6,0,0,1,1.2,2.91,31.59,31.59,0,0,1,.35,5.53h2a33.79,33.79,0,0,0-.38-5.89,7.81,7.81,0,0,0-1.67-3.87A6.44,6.44,0,0,0,244,8.6a24.05,24.05,0,0,0-5.27-.44Zm8.84,10.14a31.53,31.53,0,0,1-.35,5.52,6,6,0,0,1-1.2,2.91A4.57,4.57,0,0,1,243.56,30a22.06,22.06,0,0,1-4.82.39v2A24.05,24.05,0,0,0,244,32a6.44,6.44,0,0,0,3.52-1.94,7.81,7.81,0,0,0,1.67-3.86,33.94,33.94,0,0,0,.38-5.89Zm-8.84,10.13a22,22,0,0,1-4.81-.39,4.53,4.53,0,0,1-2.47-1.31,5.78,5.78,0,0,1-1.2-2.91,31.38,31.38,0,0,1-.36-5.52h-2a33.82,33.82,0,0,0,.39,5.89A7.72,7.72,0,0,0,230,30.05,6.44,6.44,0,0,0,233.47,32a24.17,24.17,0,0,0,5.27.44ZM229.9,20.3a31.43,31.43,0,0,1,.36-5.53,5.78,5.78,0,0,1,1.2-2.91,4.53,4.53,0,0,1,2.47-1.31,22,22,0,0,1,4.81-.39v-2a24.17,24.17,0,0,0-5.27.44A6.44,6.44,0,0,0,230,10.54a7.72,7.72,0,0,0-1.67,3.87,33.67,33.67,0,0,0-.39,5.89Zm-12.56,0a47.84,47.84,0,0,0,.8,10.09,12,12,0,0,0,3.27,6.38,13.14,13.14,0,0,0,6.7,3.08,57.56,57.56,0,0,0,10.63.74v-2a54.78,54.78,0,0,1-10.24-.71,11.08,11.08,0,0,1-5.71-2.56,10,10,0,0,1-2.7-5.36,46.76,46.76,0,0,1-.75-9.66Zm21.4,20.29a57.42,57.42,0,0,0,10.63-.74,13.1,13.1,0,0,0,6.7-3.08,11.93,11.93,0,0,0,3.28-6.38,48.6,48.6,0,0,0,.79-10.09h-2A46.86,46.86,0,0,1,257.4,30a10,10,0,0,1-2.7,5.36A11.08,11.08,0,0,1,249,37.88a54.89,54.89,0,0,1-10.25.71Zm21.4-20.29a48.64,48.64,0,0,0-.79-10.1,11.93,11.93,0,0,0-3.28-6.38,13,13,0,0,0-6.7-3.07A56.45,56.45,0,0,0,238.74,0V2A54.89,54.89,0,0,1,249,2.71a11.08,11.08,0,0,1,5.71,2.56,10.07,10.07,0,0,1,2.7,5.36,47,47,0,0,1,.74,9.67ZM238.74,0a56.59,56.59,0,0,0-10.63.75,13,13,0,0,0-6.7,3.07,12,12,0,0,0-3.27,6.38,47.88,47.88,0,0,0-.8,10.1h2a46.87,46.87,0,0,1,.75-9.67,10,10,0,0,1,2.7-5.36,11.08,11.08,0,0,1,5.71-2.56A54.78,54.78,0,0,1,238.74,2Zm61,1.58h1v-1h-1Zm-10.08,0v-1h-1v1Zm-13.06,0h1v-1h-1Zm-10.08,0v-1h-1v1Zm34.22,22.08V1.58h-2V23.66Zm-1-23.08H289.65v2h10.08Zm-11.08,1V23.66h2V1.58Zm0,22.08a23.82,23.82,0,0,1-.23,3.81,4.06,4.06,0,0,1-.73,1.9c-.61.72-1.76,1.06-4.57,1.06v2c2.71,0,4.82-.26,6.1-1.78a5.89,5.89,0,0,0,1.17-2.83,25.9,25.9,0,0,0,.26-4.16Zm-5.53,6.77c-2.81,0-4-.34-4.57-1.06a4.06,4.06,0,0,1-.73-1.9,22.7,22.7,0,0,1-.23-3.81h-2a24.79,24.79,0,0,0,.26,4.16A5.89,5.89,0,0,0,277,30.65c1.28,1.52,3.39,1.78,6.1,1.78Zm-5.53-6.77V1.58h-2V23.66Zm-1-23.08H266.51v2h10.08Zm-11.08,1V23.66h2V1.58Zm0,22.08a40.45,40.45,0,0,0,.65,8.37,10.15,10.15,0,0,0,2.71,5.36A10.69,10.69,0,0,0,274.41,40a45.52,45.52,0,0,0,8.71.62v-2a43.51,43.51,0,0,1-8.31-.58,8.78,8.78,0,0,1-4.56-2.07,8.13,8.13,0,0,1-2.14-4.34,38.74,38.74,0,0,1-.6-7.94Zm17.61,16.93a45.35,45.35,0,0,0,8.7-.62,10.68,10.68,0,0,0,5.55-2.58A10.15,10.15,0,0,0,300.08,32a40.45,40.45,0,0,0,.65-8.37h-2a39.46,39.46,0,0,1-.6,7.94A8.13,8.13,0,0,1,296,35.94,8.78,8.78,0,0,1,291.43,38a43.51,43.51,0,0,1-8.31.58ZM317.38,39h-1v1h1Zm10.08,0v1h1V39Zm0-29.28v-1h-1v1Zm11.57,0v1h1v-1Zm0-8.16h1v-1h-1Zm-33.12,0v-1h-1v1Zm0,8.16h-1v1h1Zm11.47,0h1v-1h-1Zm0,30.28h10.08V38H317.38Zm11.08-1V9.74h-2V39Zm-1-28.28H339v-2H327.46Zm12.57-1V1.58h-2V9.74ZM339,.58H305.91v2H339Zm-34.12,1V9.74h2V1.58Zm1,9.16h11.47v-2H305.91Zm10.47-1V39h2V9.74Z"/></g></g></svg>