<svg xmlns="http://www.w3.org/2000/svg" viewBox="0 0 283.98 24"><defs><style>.cls-1{fill:#fff;}.cls-2{fill:none;stroke:#fff;stroke-miterlimit:10;}</style></defs><title>items-navbar</title><g id="Capa_2" data-name="Capa 2"><g id="Capa_1-2" data-name="Capa 1"><g id="Capa_2-2" data-name="Capa 2"><g id="Capa_1-2-2" data-name="Capa 1-2"><path class="cls-1" d="M11.69,12H22.88A11.09,11.09,0,0,1,11.7,23h0Z"/><path class="cls-1" d="M11.69,1V12H.5A11.09,11.09,0,0,1,11.68,1Z"/><path class="cls-2" d="M11.69,23A11.09,11.09,0,0,0,22.88,12h0A11.09,11.09,0,0,0,11.7,1h0A11.09,11.09,0,0,0,.5,12h0A11.09,11.09,0,0,0,11.68,23Z"/><path class="cls-2" d="M142.32,22c22.66,0,41-4.49,41-10S165,2,142.32,2s-41,4.49-41,10S119.66,22,142.32,22Z"/><path class="cls-2" d="M142.32,22a10.12,10.12,0,0,0,10.22-10,10.22,10.22,0,0,0-20.44,0A10.13,10.13,0,0,0,142.32,22Z"/><path class="cls-1" d="M142.32,13.84A1.84,1.84,0,1,0,140.44,12a1.86,1.86,0,0,0,1.88,1.84Z"/><path class="cls-1" d="M243.14,24h-37.6a2.41,2.41,0,0,1-2.42-2.38V2.38A2.41,2.41,0,0,1,205.54,0h37.6a2.39,2.39,0,0,1,2.42,2.38h0V21.61A2.39,2.39,0,0,1,243.19,24Z"/><path d="M210.16,15V13l7.33-5.82h3.67v6h2.07V15h-2.07v2.17h-2.93V15Zm8.06-5.7h-.07l-4.71,3.77v.08h4.79V9.3Z"/><path d="M238.72,17.17h-3.83l-4.23-5-2.86,2.06v2.92h-3V6.91h3v4.5l6.08-4.5H238l-5,3.61Z"/><path class="cls-1" d="M79.34,24H41.74a2.39,2.39,0,0,1-2.42-2.38h0V2.38A2.39,2.39,0,0,1,41.72,0H79.34a2.39,2.39,0,0,1,2.42,2.38h0V21.61A2.39,2.39,0,0,1,79.35,24Z"/><path d="M59.51,6.91V17.17h-3V13H49.14v4.16h-3V6.91h3v3.92h7.35V6.91Z"/><path d="M75.38,12.05c0,3.68-2.24,5.12-6.3,5.12H61.72V6.91h7.36C73.12,6.91,75.38,8.36,75.38,12.05Zm-10.63-3v6h3.67c2.31,0,3.63-.85,3.63-3s-1.32-3-3.63-3Z"/><path class="cls-1" d="M283.61,22.52h-24a.42.42,0,0,1-.26-.26.06.06,0,0,0,0-.06V22c0-.05,0-.09.07-.14.33-.57.66-1.14,1-1.69.43-.73.86-1.45,1.28-2.18l1.68-2.85c.53-.91,1.06-1.8,1.58-2.71s1.12-1.91,1.69-2.86l1.53-2.59c.56-1,1.12-1.91,1.69-2.86l1.38-2.35a.48.48,0,0,1,.29-.25h.25a.41.41,0,0,1,.24.19.22.22,0,0,0,.05.08c.31.55.63,1.08.95,1.63.63,1.08,1.27,2.14,1.89,3.22l2.73,4.64,2.53,4.29c.65,1.11,1.31,2.22,2,3.34s1.16,2,1.73,2.93a1,1,0,0,1,.07.15v.23a.47.47,0,0,1-.26.29Zm-12-14.33h-2.24c-.05,0-.06,0-.06.07h0v2.68a2.16,2.16,0,0,1,0,.36V12a2.29,2.29,0,0,1,0,.37v.36a1.31,1.31,0,0,0,0,.28v.74a1.31,1.31,0,0,0,0,.28v1.43c0,.13,0,.12.12.12h3.46a.06.06,0,0,0,.06,0V14.37a2.57,2.57,0,0,1,.05-.57,2.41,2.41,0,0,0,0-.6v-5c0-.06,0-.05-.06-.05h-2.29Zm0,8.25h-2.19a.05.05,0,0,0-.05.06v3.7h4.37a0,0,0,0,0,0-.05V16.5s0-.05,0-.06h-2.09Z"/></g></g></g></g></svg>